<svg width="43" height="62" viewBox="0 0 43 62" fill="none" xmlns="http://www.w3.org/2000/svg">
<path d="M29.7865 1.92426C33.3978 -0.84588 37.709 0.189426 37.709 0.189426C37.709 0.189426 36.9811 5.30999 33.3698 8.08014C29.7585 10.8503 24.5794 10.1787 24.5794 10.1787C24.5794 10.1787 25.6992 8.49986 26.819 6.28934C27.4909 5.0022 28.4427 2.93159 29.7865 1.92426Z" fill="#77B55A"/>
<path d="M21.0801 6.09347C19.4004 4.80633 17.3848 5.28201 17.3848 5.28201C17.3848 5.28201 17.7207 7.6884 19.4004 8.97554C21.0801 10.2627 23.4876 9.95488 23.4876 9.95488C23.4876 9.95488 22.9557 9.17141 22.4518 8.1361C22.1439 7.52051 21.696 6.56915 21.0801 6.09347Z" fill="#77B55A"/>
<path d="M21.5 18.3213C22.0039 18.3213 22.4798 18.3493 22.9837 18.3772C22.5358 15.747 22.6198 13.0328 23.9915 10.6824C21.612 12.5851 20.4642 15.4952 19.8763 18.4052C20.4082 18.3493 20.9401 18.3213 21.5 18.3213Z" fill="#77B55A"/>
<path d="M21.5 19.1887C9.63021 19.1887 0 28.7863 0 40.5943C0 52.4304 9.63021 62 21.5 62C33.3698 62 43 52.4024 43 40.5943C42.972 28.7863 33.3698 19.1887 21.5 19.1887ZM30.2624 49.3525L21.472 43.3365L12.6816 49.3525L18.7285 40.5943L12.6816 31.8362L21.472 37.8522L30.2624 31.8362L24.2155 40.5943L30.2624 49.3525Z" fill="#77B55A"/>
</svg>
