<svg xmlns="http://www.w3.org/2000/svg" version="1.1" xmlns:xlink="http://www.w3.org/1999/xlink" width="78" height="112"><svg width="78" height="112" viewBox="0 0 78 112" fill="none" xmlns="http://www.w3.org/2000/svg">
<path d="M54.0313 3.47609C60.5821 -1.52804 68.4024 0.34219 68.4024 0.34219C68.4024 0.34219 67.082 9.59225 60.5313 14.5964C53.9805 19.6005 44.5859 18.3874 44.5859 18.3874C44.5859 18.3874 46.6172 15.3546 48.6484 11.3614C49.8672 9.03624 51.5938 5.29577 54.0313 3.47609Z" fill="#77B55A"></path>
<path d="M38.2383 11.0076C35.1914 8.68241 31.5351 9.5417 31.5351 9.5417C31.5351 9.5417 32.1445 13.8887 35.1914 16.2139C38.2383 18.539 42.6055 17.983 42.6055 17.983C42.6055 17.983 41.6406 16.5677 40.7266 14.6975C40.168 13.5854 39.3555 11.8669 38.2383 11.0076Z" fill="#77B55A"></path>
<path d="M39 33.0965C39.9141 33.0965 40.7773 33.147 41.6914 33.1976C40.8789 28.4462 41.0313 23.5432 43.5195 19.2972C39.2031 22.7344 37.1211 27.9913 36.0547 33.2481C37.0195 33.147 37.9844 33.0965 39 33.0965Z" fill="#77B55A"></path>
<path d="M39 34.6634C17.4687 34.6634 0 52.001 0 73.3317C0 94.713 17.4687 112 39 112C60.5312 112 78 94.6625 78 73.3317C77.9492 52.001 60.5312 34.6634 39 34.6634ZM54.8945 89.1529L38.9492 78.2853L23.0039 89.1529L33.9727 73.3317L23.0039 57.5106L38.9492 68.3781L54.8945 57.5106L43.9258 73.3317L54.8945 89.1529Z" fill="#77B55A"></path>
</svg><style>@media (prefers-color-scheme: light) { :root { filter: none; } }
@media (prefers-color-scheme: dark) { :root { filter: none; } }
</style></svg>